<?xml version="1.0" encoding="utf-8"?>
<!-- Generator: Adobe Illustrator 26.0.3, SVG Export Plug-In . SVG Version: 6.00 Build 0)  -->
<svg version="1.1" id="Layer_1" xmlns="http://www.w3.org/2000/svg" xmlns:xlink="http://www.w3.org/1999/xlink" x="0px" y="0px"
	 viewBox="0 0 499.75 57.22" style="enable-background:new 0 0 499.75 57.22;" xml:space="preserve">
<style type="text/css">
	.st0{fill:#FCC419;}
	.st1{fill:#858585;}
</style>
<g>
	<g>
		<path class="st0" d="M29.81,57.22c-4.32,0-8.28-0.71-11.91-2.12c-3.62-1.41-6.77-3.41-9.43-5.99c-2.66-2.58-4.74-5.61-6.23-9.07
			C0.75,36.57,0,32.77,0,28.61c0-4.16,0.75-7.96,2.24-11.43c1.49-3.46,3.58-6.49,6.27-9.07c2.69-2.58,5.85-4.58,9.47-5.99
			C21.6,0.71,25.6,0,29.97,0c4.42,0,8.47,0.72,12.15,2.16c3.68,1.44,6.79,3.6,9.35,6.47l-4.95,4.95c-2.29-2.24-4.78-3.88-7.47-4.91
			c-2.69-1.04-5.61-1.56-8.75-1.56c-3.2,0-6.17,0.53-8.91,1.6c-2.74,1.07-5.11,2.56-7.11,4.48c-2,1.92-3.54,4.2-4.63,6.83
			c-1.09,2.64-1.64,5.5-1.64,8.59c0,3.04,0.55,5.87,1.64,8.51c1.09,2.64,2.64,4.93,4.63,6.87c2,1.95,4.36,3.45,7.07,4.52
			c2.72,1.07,5.67,1.6,8.87,1.6c2.98,0,5.85-0.47,8.59-1.4c2.74-0.93,5.29-2.49,7.63-4.67l4.55,6.07c-2.77,2.35-6.01,4.12-9.71,5.31
			C37.57,56.62,33.75,57.22,29.81,57.22z M43.31,49.07V28.29h7.67v21.82L43.31,49.07z"/>
		<path class="st0" d="M91.5,57.22c-4.26,0-8.22-0.72-11.87-2.16c-3.65-1.44-6.81-3.45-9.47-6.03c-2.66-2.58-4.74-5.61-6.23-9.07
			c-1.49-3.46-2.24-7.25-2.24-11.35c0-4.1,0.75-7.88,2.24-11.35c1.49-3.46,3.57-6.49,6.23-9.07c2.66-2.58,5.81-4.6,9.43-6.03
			C83.22,0.72,87.19,0,91.5,0c4.26,0,8.2,0.71,11.83,2.12c3.62,1.41,6.77,3.41,9.43,5.99c2.66,2.58,4.73,5.62,6.19,9.11
			c1.46,3.49,2.2,7.29,2.2,11.39c0,4.16-0.73,7.97-2.2,11.43c-1.47,3.46-3.53,6.49-6.19,9.07c-2.66,2.58-5.81,4.58-9.43,5.99
			C99.71,56.51,95.76,57.22,91.5,57.22z M91.42,50.11c3.14,0,6.03-0.53,8.67-1.6c2.64-1.07,4.93-2.57,6.87-4.52
			c1.94-1.94,3.46-4.22,4.56-6.83c1.09-2.61,1.64-5.46,1.64-8.55c0-3.09-0.55-5.93-1.64-8.51c-1.09-2.58-2.61-4.86-4.56-6.83
			c-1.95-1.97-4.24-3.49-6.87-4.56c-2.64-1.06-5.53-1.6-8.67-1.6c-3.09,0-5.95,0.53-8.59,1.6c-2.64,1.07-4.94,2.58-6.91,4.56
			c-1.97,1.97-3.5,4.25-4.59,6.83c-1.09,2.58-1.64,5.42-1.64,8.51c0,3.09,0.55,5.94,1.64,8.55c1.09,2.61,2.62,4.89,4.59,6.83
			c1.97,1.95,4.28,3.45,6.91,4.52C85.47,49.57,88.33,50.11,91.42,50.11z"/>
		<path class="st0" d="M158.63,57.22c-4.26,0-8.22-0.72-11.87-2.16c-3.65-1.44-6.81-3.45-9.47-6.03c-2.66-2.58-4.74-5.61-6.23-9.07
			c-1.49-3.46-2.24-7.25-2.24-11.35c0-4.1,0.75-7.88,2.24-11.35c1.49-3.46,3.57-6.49,6.23-9.07c2.66-2.58,5.81-4.6,9.43-6.03
			C150.34,0.72,154.31,0,158.63,0c4.26,0,8.2,0.71,11.83,2.12c3.62,1.41,6.77,3.41,9.43,5.99c2.66,2.58,4.73,5.62,6.19,9.11
			c1.46,3.49,2.2,7.29,2.2,11.39c0,4.16-0.73,7.97-2.2,11.43c-1.47,3.46-3.53,6.49-6.19,9.07c-2.66,2.58-5.81,4.58-9.43,5.99
			C166.83,56.51,162.89,57.22,158.63,57.22z M158.55,50.11c3.14,0,6.03-0.53,8.67-1.6c2.64-1.07,4.93-2.57,6.87-4.52
			c1.94-1.94,3.46-4.22,4.56-6.83c1.09-2.61,1.64-5.46,1.64-8.55c0-3.09-0.55-5.93-1.64-8.51c-1.09-2.58-2.61-4.86-4.56-6.83
			c-1.95-1.97-4.24-3.49-6.87-4.56c-2.64-1.06-5.53-1.6-8.67-1.6c-3.09,0-5.95,0.53-8.59,1.6c-2.64,1.07-4.94,2.58-6.91,4.56
			c-1.97,1.97-3.5,4.25-4.59,6.83c-1.09,2.58-1.64,5.42-1.64,8.51c0,3.09,0.55,5.94,1.64,8.55c1.09,2.61,2.62,4.89,4.59,6.83
			c1.97,1.95,4.28,3.45,6.91,4.52C152.6,49.57,155.46,50.11,158.55,50.11z"/>
		<path class="st0" d="M200.5,56.58V0.64h23.57c5.97,0,11.23,1.17,15.78,3.52c4.56,2.35,8.1,5.62,10.63,9.83
			c2.53,4.21,3.8,9.08,3.8,14.62c0,5.54-1.27,10.42-3.8,14.62c-2.53,4.21-6.07,7.49-10.63,9.83c-4.55,2.34-9.82,3.52-15.78,3.52
			H200.5z M208.5,49.63h15.1c4.63,0,8.64-0.88,12.03-2.64c3.38-1.76,6.01-4.22,7.87-7.39c1.86-3.17,2.8-6.83,2.8-10.99
			c0-4.21-0.93-7.88-2.8-11.03c-1.87-3.14-4.49-5.59-7.87-7.35c-3.38-1.76-7.39-2.64-12.03-2.64h-15.1V49.63z"/>
	</g>
</g>
<g>
	<g>
		<path class="st1" d="M273.11,56.58V0.64h6.55l25.09,42.27h-3.52l24.77-42.27h6.55l0.08,55.94h-7.67l-0.08-43.87h1.84l-22.06,37.08
			h-3.68l-22.22-37.08h2v43.87H273.11z"/>
		<path class="st1" d="M357.42,49.63h32.6v6.95h-40.6V0.64h39.48v6.95h-31.49V49.63z M356.7,24.77h28.77v6.79H356.7V24.77z"/>
		<path class="st1" d="M394.5,56.58l25.33-55.94h7.91l25.41,55.94h-8.39L422.15,5.11h3.2l-22.62,51.47H394.5z M405.29,42.59
			l2.16-6.39h31.49l2.32,6.39H405.29z"/>
		<path class="st1" d="M461.47,56.58V0.64h7.99v48.99h30.29v6.95H461.47z"/>
	</g>
</g>
</svg>
